<svg width="40" height="40" viewBox="0 0 40 40" fill="none" xmlns="http://www.w3.org/2000/svg">
<rect width="40" height="40" rx="20" fill="#DF283D"/>
<path d="M28.3994 23.4028L23.9707 21.4181C23.77 21.3321 23.5511 21.2975 23.3337 21.3175C23.1163 21.3375 22.9073 21.4114 22.7257 21.5325C22.7073 21.5443 22.6897 21.5575 22.6732 21.5718L20.3585 23.5406C20.3345 23.5537 20.3078 23.561 20.2804 23.562C20.2531 23.563 20.2259 23.5576 20.201 23.5462C18.7132 22.8281 17.1719 21.2962 16.451 19.829C16.439 19.8045 16.4328 19.7776 16.4328 19.7503C16.4328 19.723 16.439 19.696 16.451 19.6715L18.4263 17.3278C18.4405 17.3104 18.4536 17.2923 18.4657 17.2734C18.5851 17.0911 18.6573 16.8819 18.6756 16.6647C18.6939 16.4475 18.6579 16.2291 18.5707 16.0293L16.6001 11.6081C16.4882 11.3471 16.2946 11.1294 16.0485 10.9878C15.8024 10.8461 15.517 10.7881 15.2351 10.8225C14.01 10.9835 12.8854 11.5852 12.0716 12.5149C11.2578 13.4447 10.8103 14.639 10.8129 15.8747C10.8129 23.2153 16.7848 29.1872 24.1254 29.1872C25.361 29.1895 26.5552 28.742 27.4849 27.9282C28.4146 27.1144 29.0163 25.99 29.1776 24.765C29.2118 24.4844 29.1546 24.2003 29.0144 23.9548C28.8742 23.7094 28.6585 23.5158 28.3994 23.4028ZM24.1254 28.0622C17.4054 28.0622 11.9379 22.5947 11.9379 15.8747C11.9347 14.9127 12.2819 13.9825 12.9146 13.2579C13.5473 12.5333 14.4221 12.0638 15.3757 11.9372H15.3973C15.435 11.9379 15.4717 11.95 15.5025 11.9719C15.5333 11.9938 15.5567 12.0245 15.5698 12.06L17.5479 16.4765C17.5592 16.5011 17.565 16.5278 17.565 16.5548C17.565 16.5818 17.5592 16.6085 17.5479 16.6331L15.5688 18.9825C15.5541 18.9992 15.5406 19.0171 15.5285 19.0359C15.4047 19.225 15.3317 19.4428 15.3168 19.6683C15.3018 19.8938 15.3454 20.1194 15.4432 20.3231C16.2748 22.0256 17.9904 23.7281 19.7116 24.5597C19.9166 24.6569 20.1432 24.6994 20.3695 24.683C20.5957 24.6665 20.8138 24.5918 21.0026 24.4659C21.0204 24.4537 21.0382 24.4406 21.0551 24.4265L23.3688 22.4578C23.3917 22.4455 23.4169 22.4383 23.4428 22.4367C23.4687 22.4351 23.4946 22.4391 23.5188 22.4484L27.9485 24.4331C27.9847 24.4485 28.0151 24.4749 28.0355 24.5085C28.0558 24.5422 28.0651 24.5814 28.0619 24.6206C27.936 25.5746 27.4669 26.4501 26.7424 27.0835C26.018 27.7168 25.0877 28.0647 24.1254 28.0622Z" fill="#F5F5F5"/>
<path d="M24.1254 28.0622C17.4054 28.0622 11.9379 22.5947 11.9379 15.8747C11.9347 14.9127 12.2819 13.9825 12.9146 13.2579C13.5473 12.5333 14.4221 12.0638 15.3757 11.9372H15.3973C15.435 11.9379 15.4717 11.95 15.5025 11.9719C15.5333 11.9938 15.5567 12.0245 15.5698 12.06L17.5479 16.4765C17.5592 16.5011 17.565 16.5278 17.565 16.5548C17.565 16.5818 17.5592 16.6085 17.5479 16.6331L15.5688 18.9825C15.5541 18.9992 15.5406 19.0171 15.5285 19.0359C15.4047 19.225 15.3317 19.4428 15.3168 19.6683C15.3018 19.8938 15.3454 20.1194 15.4432 20.3231C16.2748 22.0256 17.9904 23.7281 19.7116 24.5597C19.9166 24.6569 20.1432 24.6994 20.3695 24.683C20.5957 24.6665 20.8138 24.5918 21.0026 24.4659C21.0204 24.4537 21.0382 24.4406 21.0551 24.4265L23.3688 22.4578C23.3917 22.4455 23.4169 22.4383 23.4428 22.4367C23.4687 22.4351 23.4946 22.4391 23.5188 22.4484L27.9485 24.4331C27.9847 24.4485 28.0151 24.4749 28.0355 24.5085C28.0558 24.5422 28.0651 24.5814 28.0619 24.6206C27.936 25.5746 27.4669 26.4501 26.7424 27.0835C26.018 27.7168 25.0877 28.0647 24.1254 28.0622Z" fill="#F5F5F5"/>
</svg>
